<svg width="30" height="31" viewBox="0 0 30 31" fill="none" xmlns="http://www.w3.org/2000/svg">
<g clip-path="url(#clip0_14769_3697)">
<path d="M10.7297 16.6284H19.2701C19.5018 16.6284 19.6493 16.3808 19.5391 16.177L18.1062 13.5277C18.0702 13.4611 18.0108 13.4103 17.9394 13.385C17.868 13.3597 17.7898 13.3618 17.7199 13.3908L16.0901 14.0679C16.0403 14.0886 15.9859 14.0957 15.9325 14.0886C15.879 14.0815 15.8284 14.0604 15.7857 14.0274L12.6357 11.5914C12.4735 11.466 12.2363 11.5325 12.163 11.7239L10.4441 16.2131C10.3674 16.4134 10.5152 16.6284 10.7297 16.6284Z" stroke="#757575" stroke-miterlimit="10" stroke-linecap="round" stroke-linejoin="round"/>
<path d="M17.255 11.234C17.9714 11.234 18.5521 10.6532 18.5521 9.93681C18.5521 9.22041 17.9714 8.63965 17.255 8.63965C16.5386 8.63965 15.9578 9.22041 15.9578 9.93681C15.9578 10.6532 16.5386 11.234 17.255 11.234Z" stroke="#757575" stroke-miterlimit="10" stroke-linecap="round" stroke-linejoin="round"/>
<path d="M17.5622 21.318H23.3496C23.6739 21.318 23.9367 21.5808 23.9367 21.905V23.0792C23.9367 23.4035 23.6739 23.6663 23.3496 23.6663H6.65044C6.32619 23.6663 6.06335 23.4035 6.06335 23.0792V21.905C6.06335 21.5808 6.32619 21.318 6.65044 21.318H12.2714M22.1048 21.318V4.50957H7.89517V21.318M15 0.859375V1.9773M15 23.7803V27.1546M23.3496 4.50957H6.65044C6.32619 4.50957 6.06335 4.24673 6.06335 3.92249V2.74832C6.06335 2.42407 6.32619 2.16123 6.65044 2.16123H23.3496C23.6738 2.16123 23.9367 2.42407 23.9367 2.74832V3.92249C23.9367 4.24673 23.6738 4.50957 23.3496 4.50957ZM18.8782 29.6852H11.1218C11.1218 28.3883 12.1733 27.3369 13.4702 27.3369H16.5298C17.8268 27.3369 18.8782 28.3883 18.8782 29.6852Z" stroke="#757575" stroke-miterlimit="10" stroke-linecap="round" stroke-linejoin="round"/>
</g>
<defs>
<clipPath id="clip0_14769_3697">
<rect width="30" height="30" fill="white" transform="translate(0 0.272461)"/>
</clipPath>
</defs>
</svg>
